<svg width="107" height="112" viewBox="0 0 107 112" fill="none" xmlns="http://www.w3.org/2000/svg">
<path d="M53.5 56C70.3859 56 84.0714 43.4656 84.0714 28C84.0714 12.5344 70.3859 0 53.5 0C36.6141 0 22.9286 12.5344 22.9286 28C22.9286 43.4656 36.6141 56 53.5 56ZM74.9 63H70.9114C65.6091 65.2312 59.7098 66.5 53.5 66.5C47.2902 66.5 41.4147 65.2312 36.0886 63H32.1C14.3781 63 -7.2888e-06 76.1687 -7.2888e-06 92.4V101.5C-7.2888e-06 107.297 5.13504 112 11.4643 112H95.5357C101.865 112 107 107.297 107 101.5V92.4C107 76.1687 92.6219 63 74.9 63Z" fill="#001B16"/>
</svg>
