<svg width="42" height="42" viewBox="0 0 42 42" fill="none" xmlns="http://www.w3.org/2000/svg">
<path d="M41.203 13.1006L22.0077 0.303773C21.3525 -0.0994098 20.6533 -0.103101 19.9921 0.303773L0.79685 13.1006C0.304663 13.4287 0 14.0147 0 14.6006V27.3973C0 27.9833 0.304664 28.5692 0.796932 28.8974L19.9922 41.696C20.6474 42.0992 21.3466 42.1029 22.0078 41.696L41.2031 28.8974C41.6953 28.5693 42 27.9833 42 27.3973V14.6006C41.9999 14.0147 41.6953 13.4287 41.203 13.1006ZM22.8046 5.17864L36.9375 14.6006L30.6328 18.8193L22.8046 13.5927V5.17864ZM19.1953 5.17864V13.5927L11.3671 18.8193L5.06247 14.6006L19.1953 5.17864ZM3.60937 17.9756L8.13281 20.999L3.60937 24.0224V17.9756ZM19.1953 36.8193L5.06247 27.3974L11.3671 23.1786L19.1953 28.4052V36.8193ZM21 25.2646L14.6249 20.999L21 16.7334L27.375 20.999L21 25.2646ZM22.8046 36.8193V28.4052L30.6328 23.1786L36.9375 27.3974L22.8046 36.8193ZM38.3906 24.0224L33.8671 20.999L38.3906 17.9756V24.0224Z" fill="#001B16"/>
</svg>
