<svg width="46" height="44" viewBox="0 0 46 44" fill="none" xmlns="http://www.w3.org/2000/svg">
<path d="M15.0941 35.4287C15.0941 35.6107 14.8848 35.7563 14.6209 35.7563C14.3207 35.7836 14.1114 35.638 14.1114 35.4287C14.1114 35.2468 14.3207 35.1012 14.5846 35.1012C14.8575 35.0739 15.0941 35.2195 15.0941 35.4287ZM12.2645 35.0193C12.2008 35.2013 12.3828 35.4105 12.6557 35.4651C12.8923 35.5561 13.1652 35.4651 13.2198 35.2832C13.2744 35.1012 13.1015 34.8919 12.8286 34.8101C12.592 34.7464 12.3282 34.8373 12.2645 35.0193ZM16.2859 34.8646C16.0221 34.9283 15.8401 35.1012 15.8674 35.3105C15.8947 35.4924 16.1313 35.6107 16.4042 35.547C16.6681 35.4833 16.85 35.3105 16.8227 35.1285C16.7954 34.9556 16.5498 34.8373 16.2859 34.8646ZM22.2726 0C9.65328 0 0 9.5805 0 22.1998C0 32.2898 6.35061 40.9241 15.4216 43.9629C16.5862 44.1722 16.9956 43.4534 16.9956 42.862C16.9956 42.2979 16.9683 39.1863 16.9683 37.2757C16.9683 37.2757 10.5995 38.6404 9.26206 34.5644C9.26206 34.5644 8.22485 31.9168 6.73273 31.2344C6.73273 31.2344 4.64923 29.806 6.87831 29.8333C6.87831 29.8333 9.14378 30.0153 10.3902 32.1806C12.3828 35.6926 15.7218 34.6827 17.0229 34.0822C17.2322 32.6265 17.8235 31.6166 18.4786 31.0161C13.3927 30.452 8.26125 29.715 8.26125 20.9625C8.26125 18.4604 8.95272 17.2049 10.4084 15.6036C10.1719 15.0122 9.39853 12.5738 10.645 9.42583C12.5465 8.83444 16.9228 11.8824 16.9228 11.8824C18.7425 11.3729 20.6986 11.109 22.6365 11.109C24.5745 11.109 26.5306 11.3729 28.3503 11.8824C28.3503 11.8824 32.7265 8.82534 34.6281 9.42583C35.8746 12.5829 35.1012 15.0122 34.8646 15.6036C36.3204 17.214 37.212 18.4695 37.212 20.9625C37.212 29.7423 31.8531 30.4429 26.7672 31.0161C27.6042 31.7348 28.3139 33.0996 28.3139 35.2377C28.3139 38.3038 28.2866 42.0978 28.2866 42.8438C28.2866 43.4352 28.7051 44.154 29.8606 43.9447C38.9589 40.9241 45.1275 32.2898 45.1275 22.1998C45.1275 9.5805 34.8919 0 22.2726 0ZM8.84354 31.38C8.72526 31.471 8.75255 31.6802 8.90722 31.8531C9.0528 31.9987 9.26206 32.0624 9.38034 31.9441C9.49861 31.8531 9.47132 31.6438 9.31665 31.471C9.17107 31.3254 8.96181 31.2617 8.84354 31.38ZM7.86092 30.643C7.79723 30.7613 7.88822 30.9069 8.07018 30.9979C8.21575 31.0889 8.39772 31.0616 8.46141 30.9342C8.5251 30.8159 8.43411 30.6703 8.25215 30.5793C8.07018 30.5248 7.92461 30.5521 7.86092 30.643ZM10.8088 33.882C10.6632 34.0003 10.7178 34.2733 10.927 34.4461C11.1363 34.6554 11.4002 34.6827 11.5184 34.5371C11.6367 34.4188 11.5821 34.1459 11.4002 33.973C11.2 33.7637 10.927 33.7365 10.8088 33.882ZM9.77156 32.5446C9.62599 32.6356 9.62599 32.8721 9.77156 33.0814C9.91713 33.2906 10.1628 33.3816 10.2811 33.2906C10.4266 33.1724 10.4266 32.9358 10.2811 32.7265C10.1537 32.5173 9.91713 32.4263 9.77156 32.5446Z" fill="#001B16"/>
</svg>
