<svg width="29" height="32" viewBox="0 0 29 32" fill="none" xmlns="http://www.w3.org/2000/svg">
<path d="M6.49134 32H0.479018V10.6352H6.49134V32ZM3.48194 7.72089C1.5594 7.72089 0 5.9637 0 3.84223C1.37608e-08 2.82321 0.366846 1.84592 1.01984 1.12536C1.67283 0.404805 2.55847 0 3.48194 0C4.40541 0 5.29106 0.404805 5.94405 1.12536C6.59704 1.84592 6.96388 2.82321 6.96388 3.84223C6.96388 5.9637 5.40384 7.72089 3.48194 7.72089ZM28.9935 32H22.9942V21.5998C22.9942 19.1211 22.9488 15.9425 19.8682 15.9425C16.7423 15.9425 16.2633 18.6354 16.2633 21.4212V32H10.2575V10.6352H16.0238V13.5496H16.1079C16.9106 11.871 18.8714 10.0995 21.7966 10.0995C27.8814 10.0995 29 14.521 29 20.264V32H28.9935Z" fill="#001B16"/>
</svg>
