<svg width="47" height="47" viewBox="0 0 47 47" fill="none" xmlns="http://www.w3.org/2000/svg">
<path d="M23.4895 47C22.7847 47 22.0694 46.8321 21.4487 46.515L14.9584 43.1109C13.9906 42.626 14.464 42.4581 14.7795 42.3648C16.0734 41.9638 16.3364 41.8798 17.7144 41.1804C17.8617 41.1058 18.051 41.1337 18.1983 41.2177L23.1844 43.8384C23.3633 43.9316 23.6157 43.9316 23.784 43.8384L43.2131 33.8965C43.3919 33.8033 43.5076 33.6167 43.5076 33.4302V13.5465C43.5076 13.3506 43.3919 13.1734 43.2025 13.0708L23.784 3.13831C23.6052 3.04504 23.3633 3.04504 23.1844 3.13831L3.77641 13.0802C3.58706 13.1734 3.47135 13.36 3.47135 13.5558V33.4302C3.47135 33.6167 3.58706 33.8033 3.77641 33.8872L9.09915 36.6105C11.9919 37.8882 13.7592 36.3866 13.7592 34.8665V15.2439C13.7592 14.9641 14.0116 14.7496 14.3272 14.7496H16.7887C17.0938 14.7496 17.3568 14.9641 17.3568 15.2439V34.8758C17.3568 38.2892 15.2529 40.2477 11.6027 40.2477C10.4772 40.2477 9.59355 40.2477 7.13205 39.1659L2.04073 36.5638C0.778424 35.9203 0 34.7172 0 33.4209V13.5465C0 12.2594 0.778424 11.047 2.04073 10.4035L21.4487 0.461653C22.6795 -0.153884 24.31 -0.153884 25.5302 0.461653L44.9593 10.4128C46.2216 11.0564 47 12.2594 47 13.5558V33.4302C47 34.7172 46.2216 35.9203 44.9593 36.5732L25.5302 46.515C24.9096 46.8321 24.2048 47 23.4895 47ZM39.1737 27.4054C39.1737 23.6842 36.3335 22.6956 30.3691 21.9961C24.331 21.2873 23.7209 20.9236 23.7209 19.6739C23.7209 18.6387 24.2363 17.2584 28.707 17.2584C32.6938 17.2584 34.1665 18.0231 34.7766 20.4107C34.8292 20.6345 35.0607 20.8024 35.3236 20.8024H37.8483C38.006 20.8024 38.1533 20.7464 38.2585 20.6438C38.3637 20.5412 38.4163 20.4013 38.4058 20.2614C38.0166 16.1485 34.9344 14.2366 28.707 14.2366C23.1634 14.2366 19.8603 16.3071 19.8603 19.7858C19.8603 23.5536 23.1529 24.5982 28.4651 25.0645C34.8292 25.6147 35.3236 26.4448 35.3236 27.5546C35.3236 29.4758 33.5774 30.2966 29.4855 30.2966C24.3415 30.2966 23.216 29.1494 22.8373 26.8831C22.7952 26.6406 22.5638 26.4634 22.2798 26.4634H19.7657C19.4501 26.4634 19.2081 26.6873 19.2081 26.9577C19.2081 29.8582 20.9859 33.3183 29.496 33.3183C35.6392 33.309 39.1737 31.1546 39.1737 27.4054Z" fill="#001B16"/>
</svg>
