<svg width="55" height="32" viewBox="0 0 55 32" fill="none" xmlns="http://www.w3.org/2000/svg">
<path d="M25.9394 24.1924C25.9136 24.2324 25.8878 24.2644 25.9394 24.1924V24.1924ZM47.3492 18.3929C45.6208 18.3925 43.9153 18.7004 42.3648 19.2928C41.8578 18.4995 41.3335 17.8063 41.2476 17.2863C41.1445 16.6797 41.0327 16.3197 41.1531 15.5998C41.2734 14.8798 41.8148 13.8599 41.8062 13.7866C41.7976 13.7133 41.6859 13.3466 40.5773 13.34C39.4687 13.3333 38.5148 13.5066 38.4039 13.7333C38.2081 14.1475 38.0558 14.5733 37.9484 15.0065C37.7508 15.7864 35.7321 18.5729 34.5891 20.0261C34.2109 19.4595 33.893 18.9595 33.8242 18.5595C33.7211 17.9529 33.6094 17.5929 33.7297 16.873C33.85 16.1531 34.3914 15.1332 34.3828 15.0598C34.3742 14.9865 34.2625 14.6199 33.1548 14.6132C32.047 14.6065 31.0922 14.7798 30.9805 15.0065C30.8688 15.2331 30.7485 15.7664 30.525 16.2797C30.3016 16.793 27.6126 21.4326 26.9088 22.6392C26.5478 23.2525 26.2384 23.7458 26.015 24.0791C25.9806 24.1324 25.9548 24.1657 25.9377 24.1924C25.9634 24.1591 25.9806 24.1257 25.9806 24.1391C25.7916 24.4257 25.6798 24.5857 25.6798 24.5857V24.5924C25.5337 24.8057 25.3705 24.999 25.2931 24.999C25.2416 24.999 25.1298 24.4391 25.3189 23.6725C25.7228 22.0593 26.6767 19.5528 26.6681 19.4661C26.6595 19.4195 26.8486 18.9862 26.0408 18.7529C25.2587 18.5329 24.9751 18.8995 24.9064 18.8995C24.8376 18.8995 24.7861 19.0328 24.7861 19.0328C24.7861 19.0328 25.6541 16.2064 23.1197 16.2064C21.5385 16.2064 19.3384 17.553 18.2573 18.7729C17.5784 19.0595 16.1089 19.6794 14.562 20.3394C13.969 20.5927 13.3588 20.8527 12.783 21.0993C12.7401 21.066 12.7057 21.0327 12.6627 20.9993C9.58699 18.4529 3.90818 16.653 4.1488 13.2333C4.23474 11.9867 4.79334 8.71367 15.069 4.74066C23.491 1.4876 30.2243 2.38086 31.3836 4.36736C33.0508 7.20046 27.7836 12.4734 19.0376 13.2333C15.7041 13.5199 13.9518 12.52 13.5135 12.1467C13.058 11.7534 12.9893 11.7334 12.8174 11.8068C12.5338 11.9267 12.7143 12.2734 12.8174 12.48C13.0752 13.0067 14.1495 13.9399 15.9791 14.4065C17.5861 14.8132 21.4946 15.0398 26.2204 13.6199C31.5297 12.0334 35.6625 7.61376 34.4507 3.91406C33.2166 0.154371 25.1797 -1.07886 17.5801 1.0143C13.052 2.26087 8.15526 4.22071 4.63264 6.77383C0.448293 9.81358 -0.221168 12.46 0.053835 13.5666C1.03267 17.493 8.00916 20.0527 10.8013 21.9459C10.6638 22.0059 10.5349 22.0593 10.4146 22.1126C9.01464 22.6525 3.69591 24.8124 2.36472 27.0922C0.860798 29.6786 2.61394 31.5318 3.76466 31.7851C7.35603 32.5584 11.0333 31.1652 13.0091 28.8787C14.9848 26.5922 14.745 23.6058 13.8341 22.2459C13.8255 22.2259 13.8083 22.2126 13.7997 22.1926C14.1606 22.0259 14.5302 21.8593 14.8997 21.6926C15.6121 21.366 16.3082 21.066 16.9184 20.806C16.5747 21.526 16.3254 22.3926 16.1965 23.6458C16.0418 25.1123 16.8239 27.0122 17.8379 27.7588C18.2848 28.0854 18.8254 28.0921 19.1605 28.0921C20.3465 28.0921 20.8793 27.3322 21.4714 26.4256C22.2019 25.319 22.8464 24.0324 22.8464 24.0324C22.8464 24.0324 22.0386 27.5121 24.2472 27.5121C25.0542 27.5121 25.862 26.7055 26.2238 26.2922V26.2989C26.2238 26.2989 26.241 26.2722 26.284 26.2189C26.3699 26.1189 26.4129 26.0589 26.4129 26.0589V26.0389C26.7395 25.6056 27.4527 24.6124 28.5261 22.9725C29.9183 20.8527 31.2495 18.2062 31.2495 18.2062C31.3781 18.788 31.5561 19.3625 31.7823 19.9261C32.023 20.5594 32.53 21.2527 32.9339 21.9259C32.6073 22.2726 32.4097 22.4726 32.4097 22.4726C32.4103 22.4777 32.4134 22.4824 32.4183 22.4859C32.1605 22.7525 31.8683 23.0392 31.5675 23.3191C30.4683 24.3324 29.1612 25.4923 28.9893 25.8256C28.7831 26.2189 28.8346 26.5122 29.23 26.7389C29.5221 26.9122 30.0378 26.9389 30.5783 26.9055C31.5666 26.8522 32.2627 26.6655 32.5979 26.5456C33.2158 26.3737 33.7997 26.1359 34.333 25.8389C35.4072 25.2257 36.0603 24.3457 36.0002 23.1858C35.9658 22.5459 35.6994 21.9059 35.3728 21.306C35.4674 21.1993 35.5705 21.086 35.665 20.9727C37.3658 19.0462 38.6806 16.9317 38.6806 16.9317C38.8092 17.5134 38.9872 18.088 39.2134 18.6515C39.4197 19.1915 39.8227 19.7848 40.1923 20.3647C38.5947 21.3713 37.6064 22.5379 37.2626 23.3045C36.6267 24.7244 37.1251 25.3643 38.0619 25.511C38.483 25.5776 39.0845 25.4243 39.5314 25.2777C40.1951 25.1062 40.8209 24.8566 41.3868 24.5377C42.461 23.9244 43.5 23.0645 43.4313 21.8979C43.4055 21.3713 43.2164 20.8447 42.9672 20.3381C44.3165 19.8981 46.0687 19.6581 48.3031 19.8581C53.0882 20.2914 54.0249 22.6112 53.8445 23.5778C53.664 24.5444 52.6585 25.0843 52.3233 25.2443C51.9882 25.4043 51.8851 25.4643 51.9108 25.5843C51.9538 25.7576 52.1085 25.751 52.3921 25.711C52.7874 25.6576 54.9006 24.9244 54.9952 23.1312C55.1327 20.8647 52.3233 18.3716 47.3467 18.3916L47.3492 18.3929ZM10.4661 28.0388C8.88573 29.3787 6.66852 29.8853 5.71546 29.4586C4.6928 28.9974 5.09671 27.0255 7.04665 25.5976C8.2326 24.731 9.76145 23.9311 10.7755 23.4378C11.0076 23.3311 11.3427 23.1712 11.7552 22.9778C11.824 22.9445 11.8583 22.9312 11.8583 22.9312C11.9357 22.8912 12.0216 22.8579 12.1076 22.8179C12.82 24.8444 12.1334 26.6309 10.4661 28.0374V28.0388ZM22.0128 21.9459C21.4628 22.9925 20.3035 25.659 19.5988 25.519C18.9973 25.399 18.6277 23.3658 19.4785 21.366C19.9082 20.3594 20.8192 19.1595 21.3606 18.6929C22.2277 17.9396 23.1816 17.6996 23.405 17.9996C23.7058 18.3929 22.3566 21.2926 22.0128 21.9459ZM31.552 25.479C31.32 25.5723 31.1051 25.6323 31.002 25.5856C30.9247 25.5523 31.0965 25.4256 31.0965 25.4256C31.0965 25.4256 32.2911 24.4324 32.7637 23.9791C33.0387 23.7125 33.3567 23.3991 33.6996 23.0525C33.6996 23.0858 33.7082 23.1192 33.7082 23.1592C33.697 24.3524 32.2198 25.159 31.5494 25.479H31.552ZM38.9066 24.1791C38.7348 24.0858 38.7605 23.7724 39.3363 22.7992C39.5598 22.4192 40.0745 21.7793 40.9692 21.166C41.0704 21.3981 41.1255 21.6409 41.1324 21.8859C41.1238 23.3858 39.7402 23.9458 38.9075 24.1791H38.9066Z" fill="#001B16"/>
</svg>
