<svg width="33" height="26" viewBox="0 0 33 26" fill="none" xmlns="http://www.w3.org/2000/svg">
<path d="M28.7219 6.47966C28.7422 6.76403 28.7422 7.04845 28.7422 7.33281C28.7422 16.0062 22.1407 26 10.075 26C6.3578 26 2.9047 24.9234 0 23.0547C0.528144 23.1156 1.03591 23.1359 1.58437 23.1359C4.65151 23.1359 7.47499 22.1 9.72969 20.3328C6.84531 20.2719 4.42811 18.3828 3.59528 15.7828C4.00157 15.8437 4.40779 15.8843 4.83439 15.8843C5.42344 15.8843 6.01254 15.8031 6.56095 15.6609C3.55471 15.0515 1.29995 12.4109 1.29995 9.22186V9.14064C2.17335 9.62815 3.18906 9.93283 4.26555 9.97341C2.49835 8.79526 1.34059 6.78435 1.34059 4.50933C1.34059 3.2906 1.66553 2.17341 2.23431 1.19841C5.46402 5.17965 10.3187 7.77961 15.7624 8.06403C15.6609 7.57653 15.5999 7.06877 15.5999 6.56095C15.5999 2.94528 18.5249 0 22.1609 0C24.0499 0 25.7562 0.792185 26.9546 2.07187C28.4374 1.78751 29.8593 1.23905 31.1187 0.487504C30.6311 2.01098 29.5952 3.29066 28.2343 4.10311C29.5546 3.96099 30.8343 3.59528 32.0124 3.08752C31.1188 4.38747 30.0016 5.54524 28.7219 6.47966Z" fill="#001B16"/>
</svg>
